<svg width="18" height="18" viewBox="0 0 18 18" fill="none" xmlns="http://www.w3.org/2000/svg">
<path d="M16.6664 0H6.71665C6.00753 0 5.43066 0.5769 5.43066 1.28598V4.30427H6.60458V1.28598C6.60458 1.2242 6.65486 1.17391 6.71665 1.17391H16.6664C16.7282 1.17391 16.7785 1.2242 16.7785 1.28598V11.2358C16.7785 11.2976 16.7282 11.3479 16.6664 11.3479H13.7422V12.5218H16.6664C17.3755 12.5218 17.9524 11.9449 17.9524 11.2358V1.28598C17.9524 0.5769 17.3755 0 16.6664 0Z" fill="#6A84A0"/>
<path d="M11.2826 5.47821H1.3329C0.623775 5.47821 0.046875 6.05511 0.046875 6.76423V16.714C0.0469141 17.4231 0.623775 18 1.3329 18H11.2827C11.9918 18 12.5687 17.4231 12.5687 16.714V6.76423C12.5687 6.05511 11.9918 5.47821 11.2826 5.47821ZM11.2827 16.8261H1.3329C1.27107 16.8261 1.22079 16.7758 1.22079 16.714V6.76423C1.22079 6.70241 1.27107 6.65212 1.3329 6.65212H11.2827C11.3445 6.65212 11.3948 6.70241 11.3948 6.76423V16.714H11.3948C11.3948 16.7758 11.3445 16.8261 11.2827 16.8261Z" fill="#6A84A0"/>
</svg>
