<svg width="75" height="24" viewBox="0 0 75 24" fill="none" xmlns="http://www.w3.org/2000/svg">
<path d="M11.2072 13.0401C11.6705 13.154 12.138 13.3289 12.6096 13.5649C13.0895 13.7927 13.5198 14.0856 13.9004 14.4436C14.2893 14.8016 14.6037 15.2247 14.8436 15.7129C15.0918 16.193 15.216 16.7463 15.216 17.3728C15.216 18.1213 15.0215 18.8333 14.6326 19.5086C14.252 20.1839 13.6935 20.782 12.9571 21.3027C12.2208 21.8234 11.3189 22.2384 10.2515 22.5476C9.19245 22.8486 7.98858 22.9992 6.63991 22.9992H0V5.11921H7.37217C8.52226 5.11921 9.53583 5.21685 10.4129 5.41213C11.2982 5.59926 12.0387 5.86777 12.6345 6.21764C13.2302 6.55937 13.677 6.97026 13.9748 7.45032C14.281 7.93037 14.4341 8.45517 14.4341 9.02473C14.4341 9.48037 14.3472 9.89533 14.1734 10.2696C14.0079 10.6358 13.7763 10.9775 13.4784 11.2948C13.1888 11.6121 12.8496 11.9132 12.4607 12.198C12.0718 12.4827 11.654 12.7634 11.2072 13.0401ZM5.03889 20.0822H7.01225C7.48387 20.0822 7.90584 20.0131 8.27817 19.8747C8.6505 19.7364 8.96492 19.5493 9.22141 19.3133C9.48618 19.0692 9.68476 18.7926 9.81714 18.4834C9.9578 18.1661 10.0281 17.8325 10.0281 17.4826C10.0281 17.0595 9.94539 16.7015 9.77991 16.4086C9.61443 16.1075 9.38689 15.8635 9.0973 15.6763C8.80771 15.481 8.46848 15.3427 8.0796 15.2614C7.69899 15.1719 7.28529 15.1271 6.83849 15.1271H5.03889V20.0822ZM8.41469 12.4543C8.56363 12.3566 8.70429 12.2346 8.83667 12.0881C8.96906 11.9335 9.08489 11.7586 9.18418 11.5633C9.28347 11.368 9.36207 11.1565 9.41999 10.9287C9.47791 10.6927 9.50687 10.4445 9.50687 10.1842C9.50687 9.85872 9.44481 9.56581 9.3207 9.30544C9.19659 9.03693 9.0187 8.80911 8.78703 8.62197C8.56363 8.43483 8.29472 8.29244 7.98031 8.19481C7.67417 8.08903 7.33493 8.03615 6.9626 8.03615H5.03889V12.4543H8.41469Z" fill="url(#paint0_linear_108_4931)"/>
<path d="M23.6058 22.9992H18.5669V5.11921H23.6058V22.9992Z" fill="url(#paint1_linear_108_4931)"/>
<path d="M27.8256 5.11921H35.2722C36.8691 5.11921 38.2798 5.31449 39.5044 5.70504C40.7372 6.08745 41.7715 6.64074 42.6071 7.36488C43.4428 8.0809 44.0758 8.9515 44.506 9.9767C44.9363 11.0019 45.1514 12.1532 45.1514 13.4306C45.1514 14.1792 45.0728 14.9359 44.9156 15.7007C44.7584 16.4656 44.506 17.206 44.1585 17.922C43.811 18.6299 43.3642 19.293 42.8181 19.9114C42.272 20.5297 41.6101 21.0708 40.8324 21.5346C40.0629 21.9902 39.1651 22.3523 38.1392 22.6208C37.1215 22.8812 35.9672 23.0114 34.6765 23.0114L27.8256 22.9992V5.11921ZM32.8645 20.0822H35.1605C35.9879 20.0822 36.7036 19.9276 37.3076 19.6184C37.9116 19.3011 38.4081 18.8658 38.797 18.3125C39.1941 17.7511 39.4878 17.088 39.6781 16.3232C39.8684 15.5502 39.9636 14.7121 39.9636 13.809C39.9636 12.8163 39.8519 11.9579 39.6285 11.2338C39.4051 10.5015 39.0783 9.8994 38.648 9.42749C38.226 8.95557 37.7006 8.6057 37.0718 8.37788C36.443 8.15006 35.7273 8.03615 34.9247 8.03615H32.8645V20.0822Z" fill="url(#paint2_linear_108_4931)"/>
<path d="M48.5024 5.11921H55.949C57.5459 5.11921 58.9566 5.31449 60.1812 5.70504C61.414 6.08745 62.4483 6.64074 63.284 7.36488C64.1196 8.0809 64.7526 8.9515 65.1829 9.9767C65.6131 11.0019 65.8282 12.1532 65.8282 13.4306C65.8282 14.1792 65.7496 14.9359 65.5924 15.7007C65.4352 16.4656 65.1829 17.206 64.8353 17.922C64.4878 18.6299 64.041 19.293 63.4949 19.9114C62.9489 20.5297 62.2869 21.0708 61.5092 21.5346C60.7397 21.9902 59.842 22.3523 58.816 22.6208C57.7983 22.8812 56.6441 23.0114 55.3533 23.0114L48.5024 22.9992V5.11921ZM53.5413 20.0822H55.8373C56.6647 20.0822 57.3804 19.9276 57.9844 19.6184C58.5884 19.3011 59.0849 18.8658 59.4738 18.3125C59.8709 17.7511 60.1646 17.088 60.355 16.3232C60.5453 15.5502 60.6404 14.7121 60.6404 13.809C60.6404 12.8163 60.5287 11.9579 60.3053 11.2338C60.0819 10.5015 59.7551 9.8994 59.3248 9.42749C58.9029 8.95557 58.3775 8.6057 57.7486 8.37788C57.1198 8.15006 56.4041 8.03615 55.6015 8.03615H53.5413V20.0822Z" fill="url(#paint3_linear_108_4931)"/>
<path d="M74.2181 22.9992H69.1792V5.11921H74.2181V22.9992Z" fill="url(#paint4_linear_108_4931)"/>
<path d="M69.957 0L75 1.27562L74.2442 4.16489L69.2013 2.88926L69.957 0Z" fill="url(#paint5_linear_108_4931)"/>
<path d="M19.4744 0L24.5173 1.27562L23.7616 4.16489L18.7186 2.88926L19.4744 0Z" fill="url(#paint6_linear_108_4931)"/>
<defs>
<linearGradient id="paint0_linear_108_4931" x1="-75.7681" y1="-36.0609" x2="100.984" y2="41.7804" gradientUnits="userSpaceOnUse">
<stop stop-color="#060E30"/>
<stop offset="0.484375" stop-color="#4F2790"/>
<stop offset="1" stop-color="#C505D6"/>
</linearGradient>
<linearGradient id="paint1_linear_108_4931" x1="-75.7681" y1="-36.0609" x2="100.984" y2="41.7804" gradientUnits="userSpaceOnUse">
<stop stop-color="#060E30"/>
<stop offset="0.484375" stop-color="#4F2790"/>
<stop offset="1" stop-color="#C505D6"/>
</linearGradient>
<linearGradient id="paint2_linear_108_4931" x1="-75.7681" y1="-36.0609" x2="100.984" y2="41.7804" gradientUnits="userSpaceOnUse">
<stop stop-color="#060E30"/>
<stop offset="0.484375" stop-color="#4F2790"/>
<stop offset="1" stop-color="#C505D6"/>
</linearGradient>
<linearGradient id="paint3_linear_108_4931" x1="-75.7681" y1="-36.0609" x2="100.984" y2="41.7804" gradientUnits="userSpaceOnUse">
<stop stop-color="#060E30"/>
<stop offset="0.484375" stop-color="#4F2790"/>
<stop offset="1" stop-color="#C505D6"/>
</linearGradient>
<linearGradient id="paint4_linear_108_4931" x1="-75.7681" y1="-36.0609" x2="100.984" y2="41.7804" gradientUnits="userSpaceOnUse">
<stop stop-color="#060E30"/>
<stop offset="0.484375" stop-color="#4F2790"/>
<stop offset="1" stop-color="#C505D6"/>
</linearGradient>
<linearGradient id="paint5_linear_108_4931" x1="-75.7681" y1="-36.0609" x2="100.984" y2="41.7804" gradientUnits="userSpaceOnUse">
<stop stop-color="#060E30"/>
<stop offset="0.484375" stop-color="#4F2790"/>
<stop offset="1" stop-color="#C505D6"/>
</linearGradient>
<linearGradient id="paint6_linear_108_4931" x1="-75.7681" y1="-36.0609" x2="100.984" y2="41.7804" gradientUnits="userSpaceOnUse">
<stop stop-color="#060E30"/>
<stop offset="0.484375" stop-color="#4F2790"/>
<stop offset="1" stop-color="#C505D6"/>
</linearGradient>
</defs>
</svg>
