<svg width="19" height="19" viewBox="0 0 19 19" fill="none" xmlns="http://www.w3.org/2000/svg">
<path d="M18.7977 13.0214L14.6585 18.7095C14.4135 19.0462 14.0301 19.0771 13.7597 18.802L13.6822 18.7102L9.5337 13.0221C9.26368 12.6519 9.26321 12.051 9.53264 11.68C9.77758 11.3426 10.1613 11.3114 10.4319 11.5867L10.5094 11.6785L13.4773 15.7491L13.4767 0.949061C13.4767 0.468588 13.7366 0.0715074 14.0737 0.00866388L14.1674 -2.90264e-07C14.5171 -2.69262e-07 14.8061 0.357042 14.8518 0.820279L14.8581 0.949061L14.8587 15.7517L17.8209 11.6792C18.0661 11.3423 18.4498 11.3116 18.7202 11.5873L18.7977 11.6792C19.0429 12.0161 19.0652 12.5434 18.8646 12.9149L18.7977 13.0214L14.6585 18.7095L18.7977 13.0214ZM5.50961 18.9913L5.41589 19C5.06623 19 4.77725 18.643 4.73152 18.1797L4.72521 18.0509L4.726 3.25065L1.76121 7.32675C1.5161 7.66383 1.13241 7.69468 0.861934 7.41916L0.784441 7.32731C0.539133 6.99052 0.516681 6.46328 0.717192 6.09162L0.784033 5.98514L4.92463 0.290771C5.16973 -0.0463073 5.55343 -0.0771588 5.8239 0.198362L5.9014 0.29021L10.0489 5.98458C10.3188 6.35505 10.3189 6.95597 10.0493 7.32675C9.80423 7.66383 9.42053 7.69468 9.15006 7.41916L9.07257 7.32731L6.10736 3.25571L6.10657 18.0509C6.10657 18.5314 5.84673 18.9285 5.50961 18.9913L5.41589 19L5.50961 18.9913Z" fill="#8736FF"/>
</svg>
